<svg xmlns="http://www.w3.org/2000/svg" xmlns:xlink="http://www.w3.org/1999/xlink" width="24" height="24" preserveAspectRatio="xMidYMid meet" viewBox="0 0 24 24" style="-ms-transform: rotate(360deg); -webkit-transform: rotate(360deg); transform: rotate(360deg);"><path d="M6 8h.73L14 15.27V16H6M2.27 1L1 2.27l2 2.01c-.59.34-1 .98-1 1.72v12a2 2 0 0 0 2 2h14.73l2 2L22 20.73M20 4H7.82l4 4H14v2.18l.57.57L18 8v6.18l4 3.99V6a2 2 0 0 0-2-2z" fill="white"/><rect x="0" y="0" width="24" height="24" fill="rgba(0, 0, 0, 0)" /></svg>